<svg width="23" height="22" viewBox="0 0 23 22" fill="none" xmlns="http://www.w3.org/2000/svg">
<path d="M21.6782 18.2949C22.0474 18.7051 22.0474 19.3203 21.6372 19.6895L20.4888 20.8379C20.1196 21.248 19.5044 21.248 19.0942 20.8379L15.0337 16.7773C14.8286 16.5723 14.7466 16.3262 14.7466 16.0801V15.3828C13.27 16.5312 11.4653 17.1875 9.49658 17.1875C4.77979 17.1875 0.965332 13.373 0.965332 8.65625C0.965332 3.98047 4.77979 0.125 9.49658 0.125C14.1724 0.125 18.0278 3.98047 18.0278 8.65625C18.0278 10.666 17.3306 12.4707 16.2231 13.9062H16.8794C17.1255 13.9062 17.3716 14.0293 17.5767 14.1934L21.6782 18.2949ZM9.49658 13.9062C12.3677 13.9062 14.7466 11.5684 14.7466 8.65625C14.7466 5.78516 12.3677 3.40625 9.49658 3.40625C6.58447 3.40625 4.24658 5.78516 4.24658 8.65625C4.24658 11.5684 6.58447 13.9062 9.49658 13.9062Z" fill="white"/>
</svg>
